<?xml version="1.0" encoding="UTF-8"?>
<svg id="Capa_2" xmlns="http://www.w3.org/2000/svg" viewBox="0 0 301 72.32">
  <defs>
    <style>
      .cls-1 {
        fill: #0072b2;
      }
    </style>
  </defs>
  <g id="iconos">
    <g id="isologo-horizontal">
      <g id="Depamar">
        <path class="cls-1" d="M120.44,7.41c-2.23-1.55-4.98-2.42-8.16-2.42h-8.2c-.65,0-1.21.34-1.66.84-.43.49-.66,1.17-.66,1.85v27.11c0,.69.23,1.19.66,1.67.44.48,1,.65,1.65.65h8.2c3.18,0,5.93-.7,8.16-2.26,2.22-1.54,3.92-3.53,5.04-5.98,1.11-2.43,1.68-5.01,1.68-7.68s-.56-5.3-1.68-7.73c-1.12-2.45-2.81-4.5-5.04-6.05ZM122.56,21.22c0,2.23-.45,4.23-1.33,5.92-.88,1.69-2.14,3.12-3.74,4.07-1.61.95-3.51,1.53-5.65,1.53h-5.69V9.86h5.69c2.14,0,4.04.5,5.65,1.45,1.6.95,2.86,2.29,3.74,3.98.88,1.7,1.33,3.7,1.33,5.93Z"/>
        <path class="cls-1" d="M150.5,9.86c.62,0,1.15-.21,1.57-.66.42-.45.64-1,.64-1.66s-.21-1.3-.63-1.76c-.43-.47-.96-.79-1.58-.79h-16.37c-.65,0-1.4.34-1.84.84-.43.49-.84,1.17-.84,1.85v27.11c0,.69.41,1.19.84,1.67.44.48,1.19.65,1.83.65h16.37c.62,0,1.15-.15,1.57-.6.42-.45.64-.97.64-1.63s-.21-1.1-.63-1.57c-.43-.47-.96-.59-1.58-.59h-14.18v-9.73h12.71c.62,0,1.15.05,1.58-.4.42-.45.64-.87.64-1.53s-.21-1.01-.63-1.47c-.43-.47-.96-.5-1.58-.5h-12.71v-9.25h14.18Z"/>
        <path class="cls-1" d="M178.64,10.52c-.75-1.57-1.99-2.95-3.7-3.95-1.7-.99-3.9-1.57-6.55-1.57h-9.31c-.65,0-.98.34-1.42.84-.43.49-.42,1.17-.42,1.85v27.33c0,.69,0,1.28.42,1.75.44.48.88.73,1.53.73s1.25-.24,1.7-.72c.45-.48.73-1.07.73-1.76v-9.59h6.76c2.65,0,4.86-.25,6.55-1.24,1.71-1,2.95-2.17,3.7-3.74.74-1.55,1.11-3.18,1.11-4.97s-.37-3.42-1.11-4.97ZM175.12,15.55c0,1.61-.51,3.12-1.56,4.2-1.03,1.06-2.9,1.8-5.53,1.8h-6.4v-11.68h6.4c2.64,0,4.5.58,5.53,1.64,1.05,1.08,1.56,2.43,1.56,4.04Z"/>
        <path class="cls-1" d="M195.66,7.06c-.24-.6-.6-1.08-1.05-1.47-.48-.41-1.07-.6-1.75-.6h-.41c-.68,0-1.27.18-1.75.6-.45.39-.8.88-1.05,1.49l-10.41,26.88c-.16.41-.24.76-.24,1.06,0,.68.21,1.27.63,1.74.43.49.99.74,1.67.74.47,0,.91-.14,1.3-.42.38-.27.68-.63.88-1.11l2.54-6.65h13.25l2.54,6.66c.2.47.49.83.87,1.1.39.28.83.41,1.3.41.68,0,1.24-.25,1.67-.74.42-.47.63-1.06.63-1.75,0-.3-.08-.65-.24-1.07l-10.41-26.9ZM197.5,24.95h-9.68l4.84-12.74,4.84,12.74Z"/>
        <path class="cls-1" d="M239.44,4.99h-1.35c-.65,0-1.24.18-1.77.61-.51.4-.89.9-1.13,1.5l-8.85,17.24-8.85-17.25c-.25-.6-.63-1.08-1.13-1.48-.53-.42-1.13-.61-1.77-.61h-1.35c-.87,0-1.53.32-2.13,1-.59.67-.81,1.44-.81,2.37v26.66c0,.69.14,1.28.57,1.75.44.48.95.73,1.6.73s1.14-.24,1.59-.72c.45-.48.62-1.07.62-1.76V11.55l8.59,16.58c.25.64.67,1.16,1.22,1.55.55.4,1.18.6,1.85.6s1.29-.2,1.84-.6c.54-.39,1-.91,1.25-1.55l8.61-16.58v23.47c0,.69.17,1.28.62,1.76.46.48.98.72,1.63.72s1.11-.25,1.56-.73c.43-.48.57-1.06.57-1.75V8.36c0-.92-.23-1.7-.83-2.37-.61-.68-1.28-1-2.15-1Z"/>
        <path class="cls-1" d="M262.99,7.06c-.25-.6-.6-1.08-1.05-1.47-.48-.41-1.07-.6-1.75-.6h-.41c-.68,0-1.27.18-1.75.6-.45.39-.8.88-1.05,1.49l-10.41,26.88c-.16.42-.24.76-.24,1.06,0,.68.21,1.27.63,1.74.43.49.99.74,1.67.74.47,0,.91-.14,1.3-.42.38-.27.68-.63.88-1.11l2.54-6.65h13.25l2.55,6.66c.2.47.49.83.87,1.1.39.28.83.41,1.3.41.68,0,1.24-.25,1.67-.74.42-.47.63-1.06.63-1.75,0-.3-.08-.65-.24-1.07l-10.41-26.9ZM264.84,24.95h-9.67l4.84-12.74,4.84,12.74Z"/>
        <path class="cls-1" d="M296.24,22.75c1.32-.69,2.38-1.67,3.15-2.91.95-1.54,1.44-3.27,1.44-5.14,0-2.84-.99-5.25-2.93-7-1.93-1.74-4.83-2.7-8.63-2.7h-9.51c-.65,0-1.21.34-1.65.84-.43.49-.65,1.17-.65,1.85v27.33c0,.69.22,1.28.66,1.75.44.48,1,.73,1.64.73s1.32-.24,1.77-.72c.45-.48.8-1.07.8-1.76v-9.59h7.76c1.74,0,3.04.3,3.87,1.2.86.93,1.66,1.92,1.88,3.09.24,1.23.6,2.51.6,3.96v1.34c0,.72-.03,1.31.39,1.77.43.47.88.71,1.58.71.65,0,1.01-.25,1.46-.73.43-.48.47-1.06.47-1.75v-2.05c0-2.07-.25-4.2-.98-6.34-.63-1.83-1.59-3.13-3.11-3.87ZM296.19,15.01c0,1.7-.61,2.6-1.87,3.53-1.29.95-3.07,1.05-5.3,1.05h-6.7v-9.73h6.49c2.74,0,4.68.49,5.78,1.37,1.08.87,1.6,2.13,1.6,3.78Z"/>
      </g>
      <g id="Propiedades">
        <path class="cls-1" d="M113.16,49.36c-1.09-.62-2.51-.95-4.22-.95h-5.98c-.42,0-.88.18-1.16.49-.28.31-.52.7-.52,1.13v17.18c0,.43.28.66.56,1.14h.03c.29,0,.66.44,1.08.44s.89-.16,1.19-.47c.29-.3.55-.68.55-1.12v-5.67h4.26c1.71,0,3.13-.33,4.22-.96,1.1-.63,1.9-1.45,2.38-2.44.47-.97.71-2.04.71-3.17s-.24-2.2-.71-3.18c-.48-.99-1.28-1.82-2.38-2.44ZM113.26,54.98c0,1.01-.33,1.9-1,2.58-.66.67-1.86,1.07-3.55,1.07h-4.02v-6.81h4.02c1.69,0,2.88.16,3.55.83.67.68,1,1.32,1,2.33Z"/>
        <path class="cls-1" d="M134.32,57.68c.62-.97.93-2.06.93-3.24,0-1.79-.64-3.27-1.89-4.37-1.24-1.09-3.11-1.66-5.56-1.66h-6.11c-.42,0-.99.18-1.28.49-.28.31-.63.7-.63,1.13v17.18c0,.43.36.81.64,1.11.29.31.75.46,1.17.46s1.06-.15,1.36-.46c.29-.3.73-.68.73-1.11v-6.16h4.66c1.11,0,1.95.26,2.48.82.55.58,1.07,1.24,1.22,1.97.15.77.4,1.61.4,2.52v.84c0,.45-.03.83.24,1.12.28.3.56.45,1.02.45.42,0,.62-.16.91-.46.28-.3.27-.67.27-1.11v-1.29c0-1.3-.13-2.64-.6-3.99-.4-1.14-1.04-1.96-2.01-2.43.84-.44,1.57-1.05,2.06-1.82ZM132.25,54.64c0,1.07-.39,2.19-1.2,2.77-.83.59-1.97,1.22-3.4,1.22h-3.98v-6.81h3.85c1.76,0,3,.11,3.71.66.69.54,1.02,1.13,1.02,2.17Z"/>
        <path class="cls-1" d="M153.63,49.49c-1.42-.89-3.09-1.34-4.98-1.34s-3.56.45-4.99,1.34c-1.43.89-2.54,2.13-3.31,3.69-.77,1.55-1.18,3.35-1.21,5.36.04,2,.44,3.8,1.21,5.35.77,1.56,1.89,2.8,3.31,3.69,1.42.89,3.1,1.34,4.99,1.34s3.56-.45,4.98-1.34c1.42-.89,2.53-2.13,3.31-3.7.78-1.56,1.19-3.36,1.23-5.35-.04-1.98-.45-3.78-1.23-5.34-.78-1.57-1.9-2.81-3.31-3.7ZM148.65,65.93c-1.35,0-2.52-.32-3.49-.96-.97-.64-1.72-1.52-2.24-2.63-.52-1.11-.78-2.39-.78-3.8s.26-2.69.78-3.8c.52-1.1,1.27-1.99,2.24-2.63.97-.64,2.14-.96,3.49-.96s2.5.32,3.48.96c.98.64,1.74,1.52,2.25,2.62.52,1.11.78,2.39.78,3.8s-.26,2.69-.78,3.8c-.52,1.1-1.27,1.99-2.25,2.62-.98.64-2.15.96-3.48.96Z"/>
        <path class="cls-1" d="M174.59,49.36c-1.09-.62-2.51-.95-4.22-.95h-5.98c-.42,0-.69.18-.97.49-.28.31-.33.7-.33,1.13v17.18c0,.43.05.81.33,1.11.29.31.6.46,1.02.46s.81-.15,1.1-.46c.29-.3.47-.68.47-1.11v-5.67h4.36c1.71,0,3.13-.33,4.22-.96,1.1-.63,1.9-1.45,2.38-2.44.47-.97.71-2.04.71-3.17s-.24-2.2-.71-3.18c-.48-.99-1.28-1.82-2.38-2.44ZM174.68,54.98c0,1.01-.33,1.9-1,2.58-.66.67-1.86,1.07-3.55,1.07h-4.13v-6.81h4.13c1.69,0,2.88.16,3.55.83.67.68,1,1.32,1,2.33Z"/>
        <path class="cls-1" d="M183.12,48.3c-.42,0-.56.16-.85.48-.28.31-.2.69-.2,1.12v17.32c0,.43-.22.66.06,1.14h-.04c.29,0,.63.44,1.05.44s.95-.16,1.24-.47c.29-.3.61-.68.61-1.12v-17.32c0-.43-.32-.81-.61-1.12-.3-.32-.84-.48-1.26-.48Z"/>
        <path class="cls-1" d="M202.47,51.81c.4,0,.74-.33,1.02-.62.28-.28.41-.73.41-1.15s-.14-.84-.41-1.13c-.28-.3-.62-.51-1.02-.51h-10.52c-.42,0-.6.18-.88.49-.28.31-.23.7-.23,1.13v17.04c0,.43-.04.66.24.96.29.31.46.32.88.32h10.52c.4,0,.74,0,1.02-.29.28-.28.41-.57.41-.98s-.14-.6-.41-.89c-.28-.3-.62-.27-1.02-.27h-8.72v-5.84h7.77c.4,0,.74-.17,1.02-.46.28-.28.42-.65.42-1.07s-.14-.95-.41-1.25c-.28-.3-.62-.63-1.02-.63h-7.77v-4.87h8.72Z"/>
        <path class="cls-1" d="M220.22,49.89c-1.44-.98-3.2-1.49-5.25-1.49h-5.27c-.42,0-.71.18-1,.49-.28.31-.35.7-.35,1.13v17.04c0,.43.07.66.35.96.29.31.57.32.99.32h5.27c2.05,0,3.81-.35,5.25-1.33,1.43-.97,2.52-2.17,3.24-3.72.72-1.53,1.08-3.13,1.08-4.81s-.36-3.3-1.08-4.84c-.72-1.54-1.81-2.8-3.24-3.78ZM221.56,58.54c0,1.4-.29,2.65-.86,3.72-.56,1.06-1.37,2.04-2.4,2.63-1.03.6-2.25,1.04-3.62,1.04h-3.41v-14.11h3.41c1.37,0,2.59.11,3.62.71,1.03.6,1.84,1.34,2.4,2.4.57,1.06.86,2.22.86,3.62Z"/>
        <path class="cls-1" d="M237.64,49.64c-.16-.38-.39-.64-.68-.89-.31-.26-.69-.34-1.13-.34h-.26c-.44,0-.82.08-1.13.34-.29.25-.52.54-.68.92l-6.69,16.89c-.1.26-.15.48-.15.67,0,.43.14.8.41,1.1.28.31.64.46,1.08.46.31,0,.59-.09.84-.27.25-.17.44-.47.57-.78l1.63-4.25h8.5l1.63,4.26c.13.29.32.56.57.74.25.18.54.28.84.28.44,0,.8-.15,1.08-.46.27-.3.41-.67.41-1.1,0-.19-.05-.41-.15-.67l-6.69-16.91ZM238.8,60.57h-6.19l3.09-7.97,3.09,7.97Z"/>
        <path class="cls-1" d="M260.64,49.89c-1.44-.98-3.2-1.49-5.25-1.49h-5.27c-.42,0-.72.18-1.01.49-.28.31-.36.7-.36,1.13v17.04c0,.43.08.66.37.96.29.31.59.32,1.01.32h5.27c2.05,0,3.81-.35,5.25-1.33,1.43-.97,2.52-2.17,3.24-3.72.72-1.53,1.08-3.13,1.08-4.81s-.36-3.3-1.08-4.84c-.72-1.54-1.81-2.8-3.24-3.78ZM261.98,58.54c0,1.4-.29,2.65-.86,3.72-.56,1.06-1.37,2.04-2.4,2.63-1.03.6-2.25,1.04-3.62,1.04h-3.92v-14.11h3.92c1.37,0,2.59.11,3.62.71,1.03.6,1.84,1.34,2.4,2.4.57,1.06.86,2.22.86,3.62Z"/>
        <path class="cls-1" d="M281.66,51.81c.4,0,.74-.33,1.02-.62.28-.28.41-.73.41-1.15s-.14-.84-.41-1.13c-.28-.3-.62-.51-1.02-.51h-10.52c-.42,0-.77.18-1.06.49-.28.31-.41.7-.41,1.13v17.04c0,.43.13.66.41.96.29.31.64.32,1.06.32h10.52c.4,0,.74,0,1.02-.29.28-.28.41-.57.41-.98s-.14-.6-.41-.89c-.28-.3-.62-.27-1.02-.27h-8.58v-5.84h7.64c.4,0,.74-.17,1.02-.46.28-.28.42-.65.42-1.07s-.14-.95-.41-1.25c-.28-.3-.62-.63-1.02-.63h-7.64v-4.87h8.58Z"/>
        <path class="cls-1" d="M300.03,59.92c-.63-.78-1.41-1.37-2.3-1.75-.86-.36-2-.72-3.39-1.08-1.05-.26-1.89-.51-2.5-.73-.58-.22-1.06-.52-1.44-.91-.36-.37-.53-.83-.53-1.43,0-.91.38-1.6,1.16-2.1.81-.53,1.89-.79,3.2-.79,1.41,0,2.79.25,4.1.73.21.09.39.14.54.14.41,0,.75-.17,1-.48.24-.3.35-.64.35-1,0-.69-.32-1.18-.93-1.41-1.59-.63-3.38-.95-5.33-.95-1.48,0-2.76.27-3.82.8-1.07.54-1.89,1.28-2.45,2.19-.55.91-.83,1.95-.83,3.06,0,1.29.34,2.34,1.02,3.12.66.76,1.46,1.34,2.37,1.73.88.37,2.05.75,3.47,1.15,1.05.3,1.88.55,2.44.76.54.2.99.48,1.35.82.33.32.5.7.5,1.18,0,1.97-1.4,2.92-4.29,2.92-1.78,0-3.48-.38-5.04-1.12-.2-.09-.41-.14-.63-.14-.41,0-.75.15-1.01.46-.25.29-.38.64-.38,1.03,0,.3.09.59.26.86.17.26.39.46.66.58,1.97.91,4.12,1.38,6.37,1.38,1.37,0,2.59-.25,3.64-.73,1.06-.49,1.9-1.18,2.49-2.06.59-.88.89-1.89.89-2.99,0-1.34-.33-2.42-.97-3.22Z"/>
      </g>
      <path class="cls-1" d="M71.19,34.77L37.22.7c-.39-.39-.93-.7-1.48-.7h0c-.56,0-1.09.3-1.48.7L.45,34.71c-.39.39-.45.97-.45,1.52v33.99c0,.56.06,1.09.45,1.48s.84.61,1.4.61l67.9-.02c1.16,0,2.05-.94,2.05-2.1v-33.96c0-.56-.21-1.09-.6-1.48ZM67.64,66.75c0,.75-.62,1.36-1.37,1.36H23.51c.89-.64,1.73-1.36,2.48-2.14,2.24-2.3,4.36-4.48,6.66-5.79,2.33-1.33,4.79-1.77,7.99-1.42,4.5.49,6.75,3.11,8.24,4.85.08.1.16.19.24.28.74.85,2.03.95,2.88.21.85-.74.95-2.03.21-2.88-.07-.09-.15-.18-.23-.27-1.68-1.95-4.8-5.58-10.9-6.25-8.88-.97-13.12,3.38-18.03,8.42-2.05,2.11-4.97,3.77-7.81,4.44-2.18.52-5.28.71-7.92-1.32-2.02-1.55-3.36-4.37-3.36-7.59v-1.29c.19.29.55.56.87.8,2.15,1.66,4.78,2.51,7.66,2.51,1.21,0,2.45-.15,3.72-.45,3.61-.86,7.17-2.89,9.78-5.57,2.24-2.3,4.36-4.48,6.66-5.79,2.33-1.33,4.79-1.77,7.99-1.42,4.5.49,6.75,3.11,8.24,4.85.08.1.16.19.24.28.74.85,2.03.95,2.88.21.85-.74.95-2.03.21-2.88-.07-.09-.15-.18-.23-.27-1.68-1.95-4.8-5.58-10.9-6.25-8.88-.97-13.12,3.38-18.03,8.42-2.05,2.11-4.97,3.77-7.81,4.44-2.18.52-5.28.71-7.92-1.32-2.02-1.55-3.36-4.37-3.36-7.59v-1.29c.19.29.55.56.87.8,2.15,1.66,4.78,2.51,7.66,2.51,1.21,0,2.45-.15,3.72-.45,3.61-.86,7.17-2.89,9.78-5.57,2.24-2.3,4.36-4.48,6.66-5.79,2.33-1.33,4.79-1.77,7.99-1.42,4.5.49,6.75,3.11,8.24,4.85.08.1.16.19.24.28.74.85,2.03.95,2.88.21.85-.74.95-2.03.21-2.88-.07-.09-.15-.18-.23-.27-1.68-1.95-4.8-5.58-10.9-6.25-8.88-.97-13.12,3.38-18.03,8.42-2.05,2.11-4.97,3.77-7.81,4.44-2.18.52-5.33.71-7.97-1.32-1.76-1.36-2.99-3.69-3.33-6.41.07-.18.17-.34.31-.48L34.78,6.19c.53-.53,1.39-.53,1.92,0l30.53,30.53c.25.25.41.6.41.96v29.07Z"/>
    </g>
  </g>
</svg>