<svg id="logo-depamar-propiedades" xmlns="http://www.w3.org/2000/svg" viewBox="0 0 380 382.79"><defs><style>.cls-1{fill:#0072b2;}</style></defs><title>depamar-logo-azul</title><path class="cls-1" d="M2823,341L2643.29,160.69a11.32,11.32,0,0,0-7.75-3.69h0a11.55,11.55,0,0,0-7.85,3.69l-179.14,180c-2.08,2.08-2.57,5.12-2.57,8.07V528.69c0,2.94.49,5.77,2.57,7.85a10.33,10.33,0,0,0,7.51,3.25l359.23-.08c6.13,0,10.69-5,10.69-11.1V348.87A10.88,10.88,0,0,0,2823,341Zm-19,169.29a7.08,7.08,0,0,1-7.05,7.19l-226.24.05a105,105,0,0,0,13.18-11.37c11.88-12.19,23.12-23.71,35.28-30.65,12.32-7,25.37-9.35,42.32-7.51,23.82,2.59,35.74,16.47,43.63,25.65l1.28,1.49A10.82,10.82,0,0,0,2722.76,481l-1.22-1.42c-8.87-10.33-25.38-29.55-57.7-33.07-47-5.11-69.43,17.91-95.41,44.57a88.94,88.94,0,0,1-41.32,23.51c-11.53,2.75-28.13,3.77-42.11-7-10.67-8.2-18-23.12-18-40.19v-6.84c1,1.52,3.1,2.94,4.8,4.25,11.4,8.76,25.37,13.27,40.62,13.27a85,85,0,0,0,19.72-2.4,109.87,109.87,0,0,0,51.79-29.46c11.88-12.19,23.1-23.71,35.25-30.65,12.32-7,25.36-9.35,42.31-7.51,23.82,2.59,35.74,16.47,43.62,25.65l1.28,1.49a10.82,10.82,0,1,0,16.36-14.17l-1.22-1.42c-8.87-10.33-25.38-29.55-57.7-33.07-47-5.11-69.43,17.91-95.41,44.57a88.94,88.94,0,0,1-41.32,23.51c-11.53,2.75-28.13,3.77-42.11-7-10.67-8.2-18-23.12-18-40.19v-6.84c1,1.52,3.1,2.94,4.8,4.25,11.4,8.76,25.37,13.27,40.62,13.27a85,85,0,0,0,19.72-2.4,109.87,109.87,0,0,0,51.79-29.46c11.88-12.19,23.1-23.71,35.25-30.65,12.32-7,25.36-9.35,42.31-7.51,23.82,2.59,35.74,16.47,43.62,25.65l1.28,1.49a10.82,10.82,0,1,0,16.36-14.17l-1.22-1.42c-8.87-10.33-25.38-29.55-57.7-33.07-47-5.11-69.43,17.91-95.41,44.57a88.94,88.94,0,0,1-41.32,23.51c-11.53,2.75-28.21,3.77-42.19-7-9.34-7.18-15.81-19.51-17.6-33.92a7.18,7.18,0,0,1,1.63-2.54l161.52-161.53a7.19,7.19,0,0,1,10.18,0L2802,351.36a7.07,7.07,0,0,1,2,5.09V510.32Z" transform="translate(-2446 -157)"/></svg>